<?xml version="1.0" standalone="no"?><!DOCTYPE svg PUBLIC "-//W3C//DTD SVG 1.1//EN" "http://www.w3.org/Graphics/SVG/1.1/DTD/svg11.dtd"><svg class="icon" width="14px" height="14.00px" viewBox="0 0 1024 1024" version="1.1" xmlns="http://www.w3.org/2000/svg"><path d="M1023.07284 753.333292v60.233413l-68.386025 22.859284c-3.452871 10.870149-7.513191 21.580443-12.916295 31.555403l32.162853 64.48556-42.521465 42.521465-65.220894-32.642418a198.092479 198.092479 0 0 1-30.404446 12.884324l-23.019138 69.025445h-60.10553l-22.955197-69.025445a172.643542 172.643542 0 0 1-30.372475-12.884324l-65.252864 32.642418-42.521465-42.521465 32.162852-64.48556a174.274064 174.274064 0 0 1-12.884323-31.555403l-68.417997-22.859284v-60.233413l68.417997-22.795342a176.480065 176.480065 0 0 1 12.884323-31.587374l-32.162852-64.453589 42.521465-42.553436 65.252864 32.674389a194.38384 194.38384 0 0 1 30.372475-12.916295l22.955197-69.057416h60.10553l23.019138 69.057416c10.678323 3.293016 20.653283 7.705017 30.404446 12.916295l65.220894-32.674389 42.521465 42.553436-32.162853 64.453589c5.403103 10.006931 9.463424 20.55737 12.916295 31.587374l68.386025 22.795342z m-240.326204-60.169472a90.190265 90.190265 0 0 0-90.126323 90.286178 90.158294 90.158294 0 0 0 90.126323 90.31815 90.222236 90.222236 0 0 0 90.094352-90.31815 90.190265 90.190265 0 0 0-90.094352-90.286178z m-240.326205-308.967997c-25.992444 20.23766-30.052765 53.167817-30.052764 68.22617v30.084735c0 39.644073 25.576821 72.861969 61.000718 85.138843l-24.329951 24.329951-30.564301 30.692185 19.342471 38.844797 12.852352 25.704705-27.207343 9.047801-41.082769 13.747541v43.352712H1.598551v-120.370914a60.105529 60.105529 0 0 1 60.073559-60.201443h180.284617a90.254207 90.254207 0 0 0 90.126323-90.286178v-30.084735c0-15.058353-4.124262-47.98851-30.020794-68.22617-58.602891-42.905117-90.126323-102.722907-90.126323-172.5796C211.935933 95.177745 306.026663 0.959131 422.209373 0.959131s210.337382 94.250585 210.337382 210.657092c0 69.856692-31.619345 129.674483-90.126324 172.5796z m-60.105529 399.254175v60.265385H61.704081a60.105529 60.105529 0 0 1-60.073559-60.265385h480.68438z" fill="#e4788c" /></svg>