<?xml version="1.0" encoding="utf-8"?>
<!-- Generator: Adobe Illustrator 22.0.1, SVG Export Plug-In . SVG Version: 6.00 Build 0)  -->
<svg version="1.1" id="图层_1" xmlns="http://www.w3.org/2000/svg" xmlns:xlink="http://www.w3.org/1999/xlink" x="0px" y="0px"
	 viewBox="0 0 14 14" style="enable-background:new 0 0 14 14;" xml:space="preserve">
<style type="text/css">
	.st0{fill:#F397E1;}
</style>
<path class="st0" d="M10.6,3.6h1.6L9.4,0.9v1.5C9.4,3,10,3.6,10.6,3.6z M10.6,4.3c-1,0-2-0.9-2-1.9V0.9H2.9c-0.6,0-1.1,0.5-1.1,1V12
	c0,0.6,0.5,1,1.1,1h8.2c0.6,0,1.1-0.5,1.1-1V4.3H10.6z M3.8,4h2.8C6.8,4,7,4.1,7,4.3c0,0.2-0.2,0.4-0.4,0.4H3.8
	c-0.2,0-0.4-0.2-0.4-0.4C3.4,4.1,3.6,4,3.8,4z M10.2,11.6H3.8c-0.2,0-0.4-0.2-0.4-0.4c0-0.2,0.2-0.4,0.4-0.4h6.4
	c0.2,0,0.4,0.2,0.4,0.4C10.6,11.4,10.4,11.6,10.2,11.6z M10.2,9.3H3.8c-0.2,0-0.4-0.2-0.4-0.4c0-0.2,0.2-0.4,0.4-0.4h6.4
	c0.2,0,0.4,0.2,0.4,0.4C10.6,9.1,10.4,9.3,10.2,9.3z M10.2,7H3.8C3.6,7,3.4,6.8,3.4,6.6s0.2-0.4,0.4-0.4h6.4c0.2,0,0.4,0.2,0.4,0.4
	C10.6,6.8,10.4,7,10.2,7z"/>
</svg>
