<?xml version="1.0" standalone="no"?><!DOCTYPE svg PUBLIC "-//W3C//DTD SVG 1.1//EN" "http://www.w3.org/Graphics/SVG/1.1/DTD/svg11.dtd"><svg class="icon" width="14px" height="14.00px" viewBox="0 0 1024 1024" version="1.1" xmlns="http://www.w3.org/2000/svg"><path d="M633.459 309.12H390.901c-268.603 0-334.566 565.893-334.566 565.893C56.335 949.344 112.511 1024 181.8 1024h660.737C911.826 1024 968 949.344 968 875.013c0.001 0.003-65.985-565.893-334.541-565.893z m27.531 434.911c16.184 0 29.298 14.089 29.298 31.443s-13.114 31.441-29.298 31.441H542.059V889.4c0 17.354-13.114 31.444-29.273 31.444-16.184 0-29.296-14.091-29.296-31.444v-82.485h-119.7c-16.182 0-29.297-14.088-29.297-31.441 0-17.354 13.115-31.443 29.297-31.443h119.7v-39.895h-119.7c-16.182 0-29.297-14.063-29.297-31.418 0-17.354 13.115-31.469 29.297-31.469h80.915l-82.844-157.888c-8.094-15.062-3.28-34.261 10.718-42.936 14.02-8.678 31.924-3.542 40.015 11.469l99.75 189.355h5.047l99.748-189.355c8.09-15.01 25.995-20.148 39.993-11.469 14.021 8.675 18.834 27.875 10.742 42.936L585.027 641.25h75.963c16.184 0 29.298 14.114 29.298 31.469 0 17.353-13.114 31.418-29.298 31.418H542.059v39.895H660.99z" fill="#ff9666" /><path d="M776.563 120.063l-0.004-0.005a17.232 17.232 0 0 0 3.358-10.224c0-9.573-7.761-17.333-17.334-17.333-0.097 0-0.189 0.013-0.285 0.015l0.027-0.078H247.137c-0.13-0.003-0.256-0.02-0.387-0.02-9.573 0-17.333 7.76-17.333 17.333 0 2.967 0.749 5.759 2.063 8.201l-0.021 0.007 0.066 0.08a17.411 17.411 0 0 0 4.254 5.128l78.471 94.584-0.126-0.504c19.535 23.41 42.318 40.708 66.999 40.708h246.653c26.841 0 51.442-20.468 72.061-47.008l-0.023 0.117 75.204-89.167a17.589 17.589 0 0 0 1.474-1.747l0.071-0.087z" fill="#ff9666" /></svg>