<?xml version="1.0" standalone="no"?><!DOCTYPE svg PUBLIC "-//W3C//DTD SVG 1.1//EN" "http://www.w3.org/Graphics/SVG/1.1/DTD/svg11.dtd"><svg class="icon" width="14px" height="14.00px" viewBox="0 0 1024 1024" version="1.1" xmlns="http://www.w3.org/2000/svg"><path d="M949.51789 349.01663h-114.045355l0.688056 0.688057c23.737947 23.909961 23.737947 62.613136 0 86.523097l-9.63279 9.632791c-23.737947 23.909961-62.441122 23.909961-86.179069 0l-96.67193-97.015959H379.291114l-93.059634 93.403662c-23.565933 23.565933-61.581052 23.565933-85.146985 0l-9.460776-9.460776c-23.049891-23.049891-23.393919-60.204939-1.204099-83.942886H77.40635c-18.577524 0-33.714766 15.137242-33.714766 33.714766v18.749538c0 15.48127 12.55703 28.0383 28.0383 28.0383H123.85016l40.251301 402.857047c0 44.551655 35.950949 80.502604 80.33059 80.502603h535.307912c44.379641 0 80.33059-36.122963 80.33059-80.502603l40.079287-402.857047H949.51789c17.029397 0 30.96254-13.761129 30.96254-30.96254v-18.749538c0-16.857383-13.761129-30.618512-30.96254-30.618512zM351.596842 801.585755c0 17.029397-13.761129 30.790526-30.790526 30.790526h-18.749538c-17.029397 0-30.790526-13.761129-30.790526-30.790526V540.812364c0-17.029397 13.761129-30.790526 30.790526-30.790526h18.749538c17.029397 0 30.790526 13.761129 30.790526 30.790526V801.585755z m187.323366 0c0 17.029397-13.761129 30.790526-30.790525 30.790526h-18.749539c-17.029397 0-30.790526-13.761129-30.790525-30.790526V540.812364c0-17.029397 13.761129-30.790526 30.790525-30.790526h18.749539c17.029397 0 30.790526 13.761129 30.790525 30.790526V801.585755z m187.323367 0c0 17.029397-13.761129 30.790526-30.790526 30.790526h-18.749538c-17.029397 0-30.790526-13.761129-30.790526-30.790526V540.812364c0-17.029397 13.761129-30.790526 30.790526-30.790526h18.749538c17.029397 0 30.790526 13.761129 30.790526 30.790526V801.585755zM227.746682 415.586091c13.073072 13.073072 34.230808 13.073072 47.303881 0l236.519402-237.379472 0.172014-0.172015s0.172014 0.172014 0.172014 0.344029l239.615656 240.475726c13.245087 13.245087 34.74685 13.245087 47.991937 0l9.63279-9.63279c13.245087-13.245087 13.245087-34.74685 0-48.163951L569.53872 120.581891c-13.245087-13.245087-34.74685-13.245087-47.991937 0l-9.63279 9.632791-0.516042 0.516042-9.460776-9.460776c-13.073072-13.073072-34.230808-13.073072-47.303881 0l-236.519402 237.379472c-13.073072 13.073072-13.073072 34.402822 0 47.475895l9.63279 9.460776z" fill="#a0d468" /></svg>