<?xml version="1.0" standalone="no"?><!DOCTYPE svg PUBLIC "-//W3C//DTD SVG 1.1//EN" "http://www.w3.org/Graphics/SVG/1.1/DTD/svg11.dtd"><svg class="icon" width="14px" height="14.00px" viewBox="0 0 1024 1024" version="1.1" xmlns="http://www.w3.org/2000/svg"><path d="M243.809524 902.095238c0 13.458286-10.922667 24.380952-24.380952 24.380952L121.904762 926.47619c-13.458286 0-24.380952-10.922667-24.380952-24.380952l0-146.285714c0-13.458286 10.922667-24.380952 24.380952-24.380952l97.52381 0c13.458286 0 24.380952 10.922667 24.380952 24.380952L243.809524 902.095238z" fill="#6279ec" /><path d="M463.238095 902.095238c0 13.458286-10.922667 24.380952-24.380952 24.380952l-97.52381 0c-13.458286 0-24.380952-10.922667-24.380952-24.380952L316.952381 585.142857c0-13.458286 10.922667-24.380952 24.380952-24.380952l97.52381 0c13.458286 0 24.380952 10.922667 24.380952 24.380952L463.238095 902.095238z" fill="#6279ec" /><path d="M707.047619 902.095238c0 13.458286-10.922667 24.380952-24.380952 24.380952l-97.52381 0c-13.458286 0-24.380952-10.922667-24.380952-24.380952l0-219.428571c0-13.458286 10.922667-24.380952 24.380952-24.380952l97.52381 0c13.458286 0 24.380952 10.922667 24.380952 24.380952L707.047619 902.095238z" fill="#6279ec" /><path d="M926.47619 902.095238c0 13.458286-10.922667 24.380952-24.380952 24.380952l-97.52381 0c-13.458286 0-24.380952-10.922667-24.380952-24.380952L780.190476 463.238095c0-13.458286 10.922667-24.380952 24.380952-24.380952l97.52381 0c13.458286 0 24.380952 10.922667 24.380952 24.380952L926.47619 902.095238z" fill="#6279ec" /><path d="M839.996952 254.293333 926.45181 340.553143 926.354286 97.52381 682.934857 97.52381 770.974476 185.392762 691.321905 265.069714 691.321905 265.069714 573.854476 382.537143 472.137143 280.81981 472.33219 280.624762 402.919619 211.675429 97.52381 516.632381 97.52381 653.116952 98.694095 653.824 402.968381 349.793524 573.878857 520.582095 642.901333 451.632762 642.779429 451.486476 820.028952 274.261333Z" fill="#6279ec" /></svg>