<?xml version="1.0" standalone="no"?><!DOCTYPE svg PUBLIC "-//W3C//DTD SVG 1.1//EN" "http://www.w3.org/Graphics/SVG/1.1/DTD/svg11.dtd"><svg class="icon" width="14px" height="14.00px" viewBox="0 0 1024 1024" version="1.1" xmlns="http://www.w3.org/2000/svg"><path d="M392.697489 520.12442H83.251967A80.689005 80.689005 0 0 1 2.562962 439.447215V129.989893a80.689005 80.689005 0 0 1 80.689005-80.689005h309.445522A80.689005 80.689005 0 0 1 473.386494 129.989893v309.457322a80.689005 80.689005 0 0 1-80.689005 80.677205zM473.386494 943.310995V633.853673a80.689005 80.689005 0 0 0-80.689005-80.689005H83.251967A80.689005 80.689005 0 0 0 2.562962 633.853673v309.457322a80.689005 80.689005 0 0 0 80.689005 80.689005h309.445522A80.689005 80.689005 0 0 0 473.386494 943.310995z m505.043789 0V633.853673a80.689005 80.689005 0 0 0-80.689006-80.689005H588.295756A80.689005 80.689005 0 0 0 507.606751 633.853673v309.457322a80.689005 80.689005 0 0 0 80.689005 80.689005h309.445521A80.689005 80.689005 0 0 0 978.430283 943.310995zM759.49144 59.000561a21.594162 21.594162 0 0 0-15.340115 6.348447L562.925566 246.621968a21.712163 21.712163 0 0 0 0 30.68023l181.249359 181.24936a21.688563 21.688563 0 0 0 30.680231 0L956.069115 277.302198a21.712163 21.712163 0 0 0 0-30.68023L774.831555 65.349008a21.594162 21.594162 0 0 0-15.340115-6.348447m0-59.000443a80.429403 80.429403 0 0 1 57.053428 23.600177l181.24936 181.24936a80.689005 80.689005 0 0 1 0 114.106856l-181.24936 181.24936a80.689005 80.689005 0 0 1-114.106856 0l-181.249359-181.24936a80.689005 80.689005 0 0 1 0-114.106856L702.449812 23.600295a80.429403 80.429403 0 0 1 57.041628-23.600177z" fill="#b797f3" /></svg>